<svg xmlns="http://www.w3.org/2000/svg" xmlns:xlink="http://www.w3.org/1999/xlink" width="1200px" height="1200px" viewBox="0 0 1200 1200">
  <g id="6G79Db81TG7dHmjDHqNU1">
<g style="" vector-effect="non-scaling-stroke">
		<g id="hGMzXXDSf6Y1NBG3ve5x5">
<path style="stroke: rgb(193,193,193); stroke-width: 0; stroke-dasharray: none; stroke-linecap: butt; stroke-dashoffset: 0; stroke-linejoin: miter; stroke-miterlimit: 4; fill: rgb(105,105,105); fill-rule: nonzero; opacity: 1;" transform="matrix(1.519567 0 0 1.519567 599.730376 599.771609) matrix(1 0 0 1 0 0)  translate(-534.19928, -487.807585)" d="M 156.52 670.33 C 153.78 670.08 151.20 669.34 150.78 668.69 C 149.28 666.33 149.99 658.53 152.00 655.23 C 155.46 649.56 156.14 649.47 194.50 649.79 C 215.24 649.96 233.78 649.63 240.00 648.97 C 253.80 647.52 270.34 645.20 276.16 643.89 C 278.72 643.31 281.87 642.68 283.16 642.49 C 298.95 640.09 327.59 634.51 362.00 627.12 C 367.23 626.00 380.50 623.96 391.50 622.58 C 439.95 616.53 465.39 616.30 502.25 621.59 C 507.72 622.37 508.50 621.62 503.75 620.15 C 501.96 619.60 496.45 617.87 491.50 616.32 L 482.50 613.50 L 453.50 613.50 C 437.55 613.50 421.80 613.83 418.50 614.23 C 415.20 614.63 408.45 615.43 403.50 616.01 C 386.88 617.95 351.37 624.34 323.00 630.50 C 298.06 635.91 282.78 638.84 262.00 642.20 C 243.00 645.27 241.42 645.36 200.50 645.92 C 163.04 646.44 158.13 646.69 155.07 648.27 C 153.18 649.24 151.32 649.69 150.94 649.27 C 149.72 647.92 148.75 594.00 149.94 594.00 C 150.52 594.00 151.00 595.58 151.00 597.50 C 151.00 601.48 151.15 601.52 160.50 600.02 C 163.80 599.49 170.95 598.83 176.38 598.56 C 181.82 598.29 186.51 597.83 186.80 597.53 C 187.09 597.24 188.83 597.00 190.67 597.00 C 195.64 597.00 194.91 594.58 189.00 591.54 C 186.27 590.13 182.32 589.63 171.00 589.26 C 163.03 589.00 156.07 588.39 155.55 587.89 C 155.03 587.40 153.79 587.00 152.80 587.00 C 151.47 587.00 150.96 587.85 150.84 590.25 C 150.73 592.60 150.52 592.12 150.08 588.50 C 149.13 580.62 149.55 579.83 154.38 580.44 C 156.64 580.73 169.97 581.43 184.00 582.00 C 198.03 582.58 212.88 583.60 217.00 584.27 L 224.50 585.50 L 220.00 586.10 L 215.50 586.70 L 220.50 586.95 C 223.25 587.09 226.62 587.59 228.00 588.06 C 229.99 588.75 229.68 588.84 226.50 588.51 C 215.00 587.31 205.00 586.92 205.00 587.66 C 205.00 588.12 206.13 588.57 207.50 588.64 C 212.18 588.91 213.22 589.73 211.93 592.12 C 210.78 594.27 210.80 594.27 220.14 593.71 L 229.50 593.14 L 223.00 594.45 C 219.43 595.18 211.78 596.34 206.00 597.04 C 200.22 597.74 196.04 598.49 196.70 598.72 C 197.72 599.07 207.75 598.06 229.75 595.36 C 234.65 594.76 237.22 593.00 233.19 593.00 C 232.20 593.00 230.57 592.41 229.58 591.68 C 227.97 590.51 228.35 590.24 233.14 589.21 C 237.63 588.24 240.02 588.34 247.80 589.87 C 252.91 590.87 257.49 592.10 257.98 592.60 C 258.47 593.09 259.34 601.10 259.91 610.40 C 260.49 619.69 261.20 627.53 261.48 627.81 C 261.77 628.10 262.00 623.23 262.00 616.98 C 262.00 603.86 264.07 597.52 268.73 596.35 L 271.27 595.71 L 268.90 593.93 C 267.60 592.94 266.79 591.88 267.10 591.57 C 267.41 591.25 272.58 590.55 278.58 589.99 C 284.59 589.44 292.65 588.34 296.50 587.55 C 300.35 586.76 311.60 584.75 321.50 583.08 C 331.40 581.41 341.52 579.60 344.00 579.05 C 346.48 578.51 356.38 577.14 366.00 576.01 C 375.62 574.89 385.98 573.54 389.00 573.01 C 400.30 571.05 431.04 568.05 446.50 567.39 C 463.57 566.67 473.10 567.76 488.50 572.19 C 504.46 576.79 524.00 588.89 529.73 597.74 C 533.69 603.84 537.11 607.02 537.75 605.19 C 538.00 604.47 539.73 601.88 541.60 599.43 C 543.47 596.99 545.00 594.54 545.00 593.99 C 545.00 593.45 545.46 593.00 546.02 593.00 C 546.57 593.00 550.29 590.36 554.27 587.14 C 562.68 580.33 578.08 572.26 589.50 568.67 C 600.50 565.22 613.90 563.63 630.70 563.78 C 644.81 563.91 684.64 567.25 692.43 568.97 C 694.67 569.46 703.92 570.84 713.00 572.03 C 722.08 573.22 737.15 575.68 746.50 577.50 C 769.38 581.95 778.85 583.49 779.48 582.85 C 780.53 581.80 778.70 575.91 777.05 575.02 C 771.62 572.12 733.52 564.30 701.50 559.51 C 695.45 558.61 686.67 557.23 682.00 556.46 C 658.99 552.63 634.51 549.99 622.15 550.02 C 612.53 550.04 595.98 551.87 586.50 553.96 C 576.82 556.10 560.39 563.07 555.37 567.16 C 552.69 569.34 549.28 572.11 547.79 573.31 C 546.30 574.52 545.07 575.98 545.04 576.58 C 544.99 577.81 540.77 582.00 539.57 582.00 C 539.13 582.00 539.12 580.54 539.55 578.75 C 539.97 576.96 540.58 539.28 540.91 495.01 L 541.50 414.52 L 545.00 412.81 C 550.31 410.23 572.99 401.35 578.57 399.68 C 591.51 395.79 614.06 392.00 624.24 392.00 C 630.64 392.00 667.91 398.15 685.00 402.03 C 690.23 403.22 698.77 405.01 704.00 406.02 C 709.23 407.03 718.63 409.01 724.90 410.43 C 731.17 411.84 737.60 413.00 739.19 413.00 C 741.74 413.00 741.95 412.78 741.02 411.03 C 739.97 409.07 736.69 407.87 727.41 406.04 C 724.71 405.51 716.20 403.70 708.50 402.02 C 700.80 400.34 689.33 397.85 683.00 396.50 C 676.67 395.14 667.54 393.14 662.69 392.05 C 639.17 386.74 619.43 385.76 600.67 388.97 C 589.89 390.81 565.25 397.56 558.50 400.52 C 553.89 402.54 540.01 408.00 539.47 408.00 C 539.21 408.00 539.00 404.20 539.00 399.55 C 539.00 391.96 539.25 390.83 541.46 388.45 C 542.81 386.99 544.60 383.26 545.44 380.15 C 546.27 377.04 547.64 372.41 548.48 369.87 C 549.32 367.32 550.01 364.39 550.02 363.37 C 550.04 361.89 552.31 360.73 560.77 357.83 C 566.67 355.81 573.98 353.28 577.00 352.20 C 593.91 346.18 617.88 344.76 643.23 348.26 C 660.22 350.61 694.27 356.67 700.50 358.46 C 705.66 359.94 715.51 361.80 722.50 362.61 C 724.70 362.87 727.29 363.24 728.25 363.44 C 729.21 363.65 730.00 363.46 730.00 363.02 C 730.00 361.38 715.29 356.87 705.10 355.39 C 692.94 353.63 676.24 350.53 667.50 348.42 C 643.33 342.59 617.92 340.08 601.50 341.91 C 589.32 343.26 578.21 345.63 575.40 347.48 C 574.12 348.31 572.49 349.00 571.79 349.01 C 571.08 349.01 568.25 350.13 565.50 351.48 C 562.75 352.83 559.29 353.95 557.81 353.97 C 556.33 353.99 554.84 354.45 554.50 355.00 C 554.16 355.55 552.85 356.00 551.58 356.00 C 549.89 356.00 547.88 354.13 544.04 348.96 C 537.81 340.58 535.95 339.23 528.88 337.99 C 525.92 337.47 519.45 335.67 514.50 333.98 C 509.55 332.30 503.36 330.65 500.75 330.32 C 496.43 329.78 496.00 329.91 496.00 331.78 C 496.00 332.91 494.39 336.86 492.43 340.57 C 488.29 348.37 488.42 350.31 493.45 355.80 C 496.82 359.47 496.91 359.50 505.90 359.85 C 513.94 360.16 515.36 359.94 518.66 357.90 C 521.20 356.33 522.50 355.99 522.77 356.80 C 522.99 357.46 523.61 358.00 524.15 358.00 C 524.69 358.00 524.86 357.14 524.53 356.08 C 523.82 353.85 525.52 352.31 526.34 354.45 C 526.64 355.24 526.65 357.39 526.35 359.23 C 525.46 364.74 527.75 383.24 529.97 388.42 C 532.11 393.43 532.86 406.35 531.07 407.46 C 530.56 407.77 527.91 406.72 525.19 405.11 C 522.46 403.50 517.59 401.65 514.37 400.99 C 511.14 400.33 506.95 399.14 505.05 398.36 C 495.05 394.23 463.55 391.32 446.16 392.92 C 435.45 393.91 433.28 394.24 425.00 396.16 C 422.52 396.73 418.02 397.54 415.00 397.96 C 411.98 398.38 403.20 400.19 395.50 401.98 C 387.80 403.78 379.77 405.17 377.65 405.07 C 373.71 404.90 363.09 406.74 336.50 412.18 C 328.25 413.87 319.14 415.72 316.25 416.29 C 313.06 416.93 311.00 417.86 311.00 418.67 C 311.00 420.33 316.75 420.43 324.17 418.91 C 327.10 418.31 333.55 416.97 338.50 415.93 C 358.50 411.76 367.66 410.00 369.43 410.00 C 371.68 410.00 377.86 416.38 384.00 425.04 C 386.48 428.53 390.02 432.99 391.87 434.94 C 393.73 436.90 396.30 440.15 397.58 442.17 C 399.85 445.72 401.78 447.57 402.47 446.85 C 403.09 446.21 396.46 433.67 389.87 423.00 C 380.79 408.29 380.83 409.37 389.31 407.98 C 393.27 407.33 401.45 405.75 407.50 404.46 C 413.55 403.18 421.43 401.82 425.00 401.43 C 428.57 401.05 432.13 400.24 432.90 399.62 C 435.35 397.67 478.70 398.26 489.50 400.39 C 494.45 401.37 499.40 402.71 500.50 403.38 C 501.60 404.04 504.98 405.19 508.00 405.92 C 511.02 406.65 517.10 408.63 521.50 410.33 C 525.90 412.03 529.81 413.34 530.18 413.23 C 530.56 413.13 530.91 423.47 530.96 436.21 C 531.03 451.32 531.44 459.83 532.15 460.69 C 533.78 462.64 532.67 462.34 524.72 458.65 C 520.75 456.81 515.70 454.48 513.50 453.48 C 511.30 452.47 504.77 450.33 499.00 448.71 C 489.54 446.06 486.63 445.72 469.50 445.29 C 458.91 445.02 445.85 445.29 440.00 445.90 C 417.28 448.27 400.89 450.84 398.51 452.40 C 395.62 454.29 394.61 454.44 395.61 452.83 C 396.10 452.02 395.76 451.88 394.49 452.36 C 393.41 452.78 392.35 452.56 391.89 451.82 C 391.28 450.83 390.04 450.83 385.81 451.83 C 382.89 452.52 377.80 453.72 374.50 454.50 C 371.20 455.28 366.02 456.61 363.00 457.45 C 352.33 460.41 324.25 466.07 303.00 469.53 C 287.79 472.01 287.58 472.93 302.21 472.97 C 312.69 472.99 318.12 472.38 333.21 469.49 C 343.27 467.55 355.32 465.03 360.00 463.87 C 364.68 462.71 370.38 461.39 372.68 460.93 C 374.98 460.47 379.16 459.33 381.97 458.42 C 384.78 457.50 387.29 456.95 387.54 457.21 C 388.06 457.73 384.82 466.95 377.25 486.50 C 374.48 493.65 371.49 501.56 370.59 504.09 C 369.03 508.49 368.75 508.72 363.73 509.72 C 360.85 510.30 349.43 512.61 338.34 514.85 C 312.57 520.06 295.64 523.00 291.37 523.00 C 288.27 523.00 288.00 523.25 288.00 526.11 C 288.00 528.83 288.28 529.15 290.25 528.67 C 291.49 528.36 300.35 526.95 309.95 525.52 C 326.22 523.11 351.93 518.29 361.79 515.82 C 366.73 514.58 367.60 515.01 366.05 517.91 C 364.50 520.81 366.33 520.58 369.41 517.50 C 371.93 514.98 375.00 514.15 375.00 516.00 C 375.00 517.73 377.61 517.09 379.60 514.87 C 382.85 511.24 389.51 509.00 397.09 509.00 C 400.90 509.00 408.18 508.35 413.26 507.55 C 426.05 505.55 446.03 504.00 458.98 504.00 C 479.13 504.00 493.26 507.05 515.50 516.22 C 522.10 518.94 528.34 521.42 529.36 521.73 C 531.13 522.26 531.20 523.69 530.86 550.20 L 530.50 578.10 L 528.30 575.55 C 527.09 574.15 525.80 573.00 525.43 573.00 C 525.06 573.00 523.22 571.65 521.34 569.99 C 516.10 565.40 507.62 561.54 495.50 558.23 C 480.88 554.25 478.86 554.01 459.83 553.97 C 443.17 553.93 436.51 554.32 425.00 555.96 C 421.43 556.48 415.12 557.37 411.00 557.96 C 397.45 559.88 358.61 565.92 353.50 566.90 C 350.75 567.43 344.23 568.58 339.00 569.46 C 333.77 570.33 328.15 571.49 326.50 572.04 C 324.85 572.58 314.73 574.39 304.00 576.06 C 293.27 577.72 282.93 579.70 281.00 580.47 C 279.07 581.23 276.15 582.13 274.50 582.47 C 272.85 582.82 270.60 583.36 269.51 583.69 C 267.74 584.22 267.67 584.10 268.90 582.62 C 270.72 580.42 270.17 580.12 266.25 581.18 C 263.98 581.79 263.00 582.65 263.00 584.03 C 263.00 585.33 262.32 586.00 261.00 586.00 C 259.90 586.00 259.00 585.50 259.00 584.88 C 259.00 584.21 258.11 584.01 256.75 584.38 C 255.51 584.72 249.42 584.23 243.22 583.28 C 234.31 581.92 232.00 581.24 232.23 580.05 C 232.69 577.66 240.43 576.87 253.17 577.92 C 264.44 578.86 265.08 578.80 271.67 576.34 C 278.47 573.80 284.00 569.36 284.00 566.45 C 284.00 565.24 283.55 565.35 281.81 566.96 C 279.36 569.24 277.13 569.76 278.89 567.63 C 279.51 566.88 280.45 561.73 280.98 556.17 C 281.92 546.39 282.08 545.89 286.47 539.93 C 290.53 534.41 292.60 528.89 290.00 530.50 C 289.45 530.84 289.00 532.06 289.00 533.20 C 289.00 534.37 286.81 537.47 284.04 540.25 L 279.08 545.21 L 278.78 554.72 C 278.49 564.21 278.48 564.23 274.99 567.19 C 268.27 572.88 266.47 573.40 254.00 573.23 C 237.02 573.01 226.72 575.16 225.43 579.21 C 224.19 583.12 222.49 580.08 221.36 571.92 C 217.53 544.39 217.65 545.02 216.58 546.08 C 216.35 546.31 216.60 548.75 217.14 551.50 C 217.68 554.25 217.90 559.20 217.64 562.50 C 217.35 566.13 217.45 567.32 217.90 565.50 C 218.53 562.92 218.74 563.41 219.37 569.00 C 219.77 572.58 220.35 576.79 220.66 578.38 C 221.04 580.33 220.86 581.03 220.11 580.57 C 219.50 580.19 219.00 579.23 219.00 578.44 C 219.00 577.65 218.55 577.00 218.00 577.00 C 216.55 577.00 216.77 580.74 218.25 581.34 C 219.23 581.73 219.22 581.86 218.22 581.92 C 217.51 581.96 216.69 581.35 216.38 580.55 C 215.94 579.41 215.43 579.34 214.02 580.22 C 212.68 581.06 210.09 581.02 203.86 580.09 C 188.67 577.80 180.63 577.11 168.86 577.05 C 158.67 577.01 157.13 577.22 156.51 578.75 C 155.88 580.29 155.69 580.23 154.91 578.18 C 154.24 576.44 153.51 576.02 152.01 576.50 C 150.08 577.11 150.00 576.69 150.00 565.63 C 150.00 552.72 150.48 550.84 154.95 546.32 C 157.59 543.66 159.11 543.04 164.44 542.47 C 170.51 541.82 170.82 541.65 171.40 538.77 C 172.45 533.50 172.12 532.97 165.99 530.07 C 157.01 525.83 157.00 525.81 157.00 517.18 C 157.00 511.73 158.16 504.85 161.13 492.56 C 163.40 483.18 166.06 472.12 167.02 468.00 C 172.33 445.40 178.49 428.78 189.27 408.00 C 198.21 390.75 201.02 385.93 204.85 381.19 C 207.83 377.51 208.54 375.59 209.65 368.19 C 210.37 363.41 210.97 357.83 210.98 355.78 C 210.99 353.41 212.07 350.38 213.96 347.40 C 215.59 344.83 217.66 339.42 218.56 335.36 C 220.46 326.86 219.09 327.35 235.00 329.46 C 248.42 331.25 270.26 335.77 290.00 340.86 C 320.23 348.66 324.29 349.23 344.50 348.48 C 367.52 347.62 373.52 346.45 396.00 338.42 C 398.48 337.54 405.23 335.77 411.00 334.49 C 416.77 333.21 424.43 331.47 428.00 330.62 C 436.68 328.55 437.75 328.62 438.54 331.25 C 438.91 332.49 439.92 334.62 440.80 336.00 C 441.68 337.38 442.46 339.18 442.54 340.00 C 442.62 340.82 443.02 343.41 443.43 345.74 C 444.12 349.67 443.99 350.05 441.65 350.94 C 440.26 351.47 434.03 352.66 427.81 353.58 C 421.59 354.50 414.25 355.60 411.50 356.02 C 404.51 357.10 390.72 358.98 383.00 359.92 C 379.43 360.35 372.90 360.53 368.50 360.31 C 359.61 359.88 351.28 361.61 349.62 364.25 C 349.04 365.16 348.78 366.12 349.05 366.38 C 349.31 366.64 353.12 366.24 357.51 365.49 C 361.90 364.75 372.93 363.44 382.00 362.59 C 391.07 361.74 403.68 360.19 410.00 359.13 C 423.15 356.93 430.71 355.78 450.75 352.93 C 468.96 350.33 472.02 349.29 474.22 344.97 C 475.85 341.78 475.85 341.49 474.22 339.69 C 471.64 336.84 466.62 334.67 455.25 331.51 C 449.61 329.94 445.00 328.30 445.00 327.87 C 445.00 327.44 446.91 326.57 449.25 325.94 C 451.59 325.31 454.62 324.32 456.00 323.73 C 457.38 323.13 458.95 322.77 459.50 322.91 C 460.05 323.06 464.77 323.60 470.00 324.12 C 485.79 325.69 509.51 329.83 514.95 331.98 C 517.77 333.09 522.05 334.00 524.47 334.00 C 527.31 334.00 529.48 334.62 530.62 335.75 C 533.19 338.31 548.86 337.80 556.75 334.91 C 590.44 322.56 605.01 319.46 626.22 320.15 C 639.71 320.59 642.23 322.04 643.03 329.83 C 643.31 332.65 644.17 335.52 644.92 336.23 C 646.06 337.28 646.18 337.17 645.62 335.60 C 644.54 332.54 646.83 327.37 650.51 324.56 C 654.44 321.56 661.44 320.00 670.94 320.00 C 676.61 320.00 678.31 320.44 682.26 322.95 C 684.82 324.57 688.07 327.74 689.49 329.99 C 690.91 332.24 693.14 334.48 694.44 334.98 C 695.74 335.47 698.03 337.48 699.52 339.44 C 702.60 343.47 711.77 350.56 712.71 349.63 C 713.04 349.29 712.50 348.11 711.51 347.01 C 710.43 345.81 710.17 345.00 710.88 345.00 C 711.53 345.00 712.32 345.68 712.64 346.50 C 712.95 347.33 713.73 347.99 714.36 347.98 C 716.22 347.94 718.84 341.60 718.25 338.53 L 717.71 335.73 L 715.83 338.11 L 713.95 340.50 L 714.56 337.84 C 715.22 334.99 713.63 331.00 711.83 331.00 C 709.46 331.00 706.90 326.61 707.20 323.04 L 707.50 319.50 L 717.50 319.19 C 723.00 319.02 729.77 319.15 732.55 319.49 C 737.05 320.03 737.80 320.48 739.52 323.66 C 741.38 327.12 746.71 332.00 748.63 332.00 C 749.15 332.00 749.64 330.99 749.73 329.75 C 749.81 328.51 750.43 325.81 751.10 323.75 L 752.32 320.00 L 766.66 320.00 L 781.00 320.00 L 781.00 323.53 C 781.00 325.47 781.62 328.56 782.39 330.39 C 783.53 333.11 784.59 333.91 788.33 334.85 C 793.97 336.27 797.32 336.33 796.49 334.98 C 796.14 334.42 795.46 334.21 794.97 334.52 C 793.51 335.42 787.38 332.38 785.63 329.88 C 783.97 327.51 783.39 321.46 784.75 320.70 C 785.16 320.47 787.16 320.49 789.18 320.74 C 792.07 321.10 792.73 321.55 792.27 322.85 C 791.82 324.12 792.23 324.01 794.09 322.37 C 795.42 321.20 798.97 319.67 801.99 318.97 C 805.01 318.26 811.08 316.37 815.49 314.76 C 823.23 311.93 823.60 311.88 826.61 313.50 C 830.31 315.48 834.33 322.11 834.80 327.00 C 834.98 328.93 836.00 332.33 837.06 334.57 C 838.13 336.80 839.00 339.12 839.00 339.72 C 839.00 340.31 840.80 344.32 843.00 348.62 C 845.20 352.93 847.00 357.02 847.00 357.72 C 847.00 358.43 847.48 359.00 848.06 359.00 C 848.64 359.00 848.83 359.47 848.47 360.04 C 848.12 360.62 848.36 361.72 849.00 362.50 C 849.64 363.28 849.90 364.35 849.57 364.89 C 849.24 365.42 849.42 366.14 849.98 366.49 C 851.65 367.52 851.17 368.47 848.04 370.32 C 844.80 372.23 844.81 375.51 848.06 374.48 C 849.53 374.01 850.56 375.31 853.44 381.31 C 855.40 385.38 857.00 389.32 857.00 390.06 C 857.00 390.80 859.66 397.27 862.92 404.45 C 881.25 444.88 885.28 454.75 884.60 457.42 C 883.89 460.20 874.54 472.93 871.18 475.71 L 868.50 477.93 L 877.69 477.96 C 890.71 478.01 890.32 477.54 899.47 504.50 C 903.58 516.60 907.40 527.28 907.97 528.23 C 912.84 536.45 914.10 546.48 911.44 556.00 C 909.66 562.38 909.40 581.23 910.93 592.92 C 914.16 617.50 915.26 624.62 916.08 626.15 C 917.65 629.09 917.14 634.56 915.13 636.38 C 914.10 637.32 910.84 638.97 907.88 640.06 C 903.09 641.83 881.10 648.00 879.59 648.00 C 879.27 648.00 878.98 646.76 878.96 645.25 C 878.93 643.74 878.30 640.02 877.54 637.00 L 876.17 631.50 L 876.09 639.81 C 875.96 651.96 874.50 649.05 874.14 635.94 C 873.71 620.05 872.15 617.48 872.05 632.50 C 871.93 650.64 873.20 649.24 857.62 648.47 C 844.44 647.82 832.60 645.63 814.50 640.50 C 798.59 635.99 783.58 631.97 780.50 631.38 C 778.85 631.07 775.70 630.13 773.50 629.30 C 771.30 628.47 767.25 627.37 764.50 626.84 C 758.86 625.77 742.94 621.91 729.50 618.36 C 724.55 617.05 716.23 615.29 711.00 614.45 C 705.77 613.61 698.35 612.29 694.50 611.52 C 690.65 610.74 680.52 609.39 672.00 608.50 C 663.48 607.61 653.35 606.52 649.50 606.07 C 645.65 605.63 633.73 605.19 623.00 605.10 C 605.61 604.96 602.36 605.20 593.00 607.35 C 582.67 609.73 573.43 612.35 569.50 614.01 C 565.99 615.51 579.10 615.13 585.10 613.56 C 600.10 609.65 630.96 608.99 658.00 611.98 C 686.99 615.19 694.86 616.24 706.50 618.43 C 726.97 622.27 746.36 626.65 748.83 627.98 C 750.75 629.03 784.80 637.54 793.00 639.03 C 796.02 639.57 805.25 642.03 813.50 644.48 C 830.79 649.61 841.04 651.53 856.50 652.53 C 862.55 652.92 868.29 653.65 869.25 654.16 C 871.49 655.33 871.49 657.91 869.25 659.61 C 867.74 660.75 868.44 660.94 874.36 660.97 L 881.23 661.00 L 880.56 656.55 L 879.89 652.11 L 883.70 651.11 C 885.79 650.56 891.24 649.17 895.81 648.02 C 904.93 645.72 914.96 642.25 916.45 640.88 C 918.55 638.94 919.00 640.38 919.00 649.05 L 919.00 658.10 L 915.75 659.46 C 913.96 660.20 908.45 661.55 903.50 662.45 C 898.55 663.34 888.42 665.17 881.00 666.51 C 867.00 669.04 853.57 669.74 852.50 668.00 C 852.16 667.45 849.91 667.00 847.51 667.00 C 841.18 667.00 807.14 659.42 782.00 652.42 C 760.30 646.38 708.61 635.55 691.50 633.46 C 688.20 633.06 684.47 632.35 683.21 631.88 C 681.95 631.41 670.70 629.86 658.21 628.45 C 639.15 626.29 632.13 625.93 614.50 626.23 C 589.98 626.64 586.41 627.44 584.62 632.95 C 583.11 637.59 579.41 639.55 567.43 642.03 C 552.21 645.19 537.96 646.14 522.78 645.03 C 503.12 643.59 490.92 639.38 486.41 632.50 C 484.81 630.07 484.46 630.00 473.13 630.04 C 462.21 630.07 441.48 631.34 432.50 632.53 C 426.21 633.36 402.45 636.82 392.00 638.43 C 386.77 639.23 379.12 640.40 375.00 641.02 C 370.88 641.65 365.02 642.77 362.00 643.53 C 358.98 644.28 353.57 645.37 350.00 645.95 C 346.43 646.52 342.60 647.17 341.50 647.40 C 326.00 650.58 296.08 656.38 279.50 659.41 C 271.80 660.82 263.25 662.41 260.50 662.96 C 254.16 664.21 236.43 666.56 218.91 668.47 C 205.02 669.98 165.50 671.16 156.52 670.33 Z M 267.03 628.26 C 267.65 624.28 268.00 620.29 267.83 619.39 C 267.65 618.50 266.82 622.07 265.99 627.34 C 265.16 632.61 264.80 636.60 265.19 636.21 C 265.58 635.82 266.41 632.24 267.03 628.26 Z M 684.00 622.00 C 684.00 621.45 683.52 621.00 682.94 621.00 C 682.36 621.00 682.16 621.45 682.50 622.00 C 682.84 622.55 683.32 623.00 683.56 623.00 C 683.80 623.00 684.00 622.55 684.00 622.00 Z M 196.00 588.00 C 197.04 587.32 195.30 587.03 190.25 587.02 C 186.07 587.01 183.00 587.42 183.00 588.00 C 183.00 589.28 194.02 589.28 196.00 588.00 Z M 216.66 570.75 C 216.38 570.06 216.16 570.62 216.16 572.00 C 216.16 573.38 216.38 573.94 216.66 573.25 C 216.94 572.56 216.94 571.44 216.66 570.75 Z M 286.94 561.08 C 287.05 554.78 285.74 558.85 285.45 565.72 C 285.21 571.52 285.29 571.92 286.03 568.50 C 286.50 566.30 286.91 562.96 286.94 561.08 Z M 521.00 522.50 C 518.52 521.17 515.60 520.09 514.50 520.09 C 513.19 520.09 514.06 520.92 517.00 522.50 C 519.48 523.83 522.40 524.91 523.50 524.91 C 524.81 524.91 523.94 524.08 521.00 522.50 Z M 550.79 522.26 C 552.28 521.30 555.48 519.03 557.91 517.20 C 570.82 507.47 596.82 501.07 623.64 501.02 C 644.06 500.98 702.63 508.97 751.50 518.46 C 758.65 519.85 764.61 520.99 764.75 520.99 C 764.89 521.00 765.00 519.70 765.00 518.12 C 765.00 514.82 763.76 514.36 747.00 511.50 C 741.77 510.61 732.10 508.82 725.50 507.51 C 718.90 506.21 708.77 504.41 703.00 503.52 C 697.23 502.64 687.10 501.04 680.50 499.98 C 673.90 498.91 664.34 497.58 659.25 497.02 C 654.16 496.46 645.84 495.51 640.75 494.90 C 623.70 492.88 594.24 495.08 577.50 499.61 C 570.75 501.44 557.06 508.02 555.11 510.37 C 553.35 512.48 545.50 517.00 543.57 517.00 C 542.67 517.00 542.00 517.85 542.00 519.00 C 542.00 520.10 542.45 521.00 543.00 521.00 C 543.55 521.00 544.00 521.67 544.00 522.50 C 544.00 524.52 547.44 524.40 550.79 522.26 Z M 559.56 460.62 C 570.06 455.42 584.89 450.70 597.50 448.54 C 607.66 446.81 634.53 446.45 641.24 447.96 C 643.58 448.49 650.23 449.39 656.00 449.97 C 667.57 451.13 677.11 452.66 715.00 459.42 C 744.62 464.70 750.03 465.86 751.77 467.26 C 753.83 468.92 754.27 467.42 752.64 464.27 C 750.95 461.00 748.31 459.99 735.00 457.56 C 730.33 456.70 722.00 455.09 716.50 453.98 C 711.00 452.86 701.13 451.08 694.57 450.01 C 688.01 448.94 680.36 447.63 677.57 447.09 C 659.15 443.52 640.48 441.73 620.50 441.62 C 597.72 441.49 591.45 442.22 575.25 446.88 C 564.65 449.93 543.43 460.01 543.60 461.91 C 543.66 462.51 543.77 464.60 543.85 466.55 L 544.00 470.10 L 547.31 467.58 C 549.13 466.19 554.64 463.06 559.56 460.62 Z M 340.78 371.15 C 341.06 370.32 340.43 370.07 338.85 370.40 C 337.56 370.67 333.80 371.24 330.50 371.66 L 324.50 372.43 L 330.00 372.97 C 336.31 373.59 340.19 372.94 340.78 371.15 Z M 518.88 510.67 C 507.21 504.84 499.63 502.11 487.50 499.38 C 472.54 496.00 431.95 497.77 390.86 503.59 C 386.70 504.17 386.14 504.02 385.54 502.12 C 385.12 500.81 384.04 500.01 382.68 500.02 C 379.54 500.04 377.83 501.41 378.57 503.32 C 378.96 504.33 378.24 506.12 376.70 507.95 C 372.32 513.15 372.93 509.09 379.15 491.42 C 382.43 482.11 386.05 471.80 387.20 468.50 C 388.34 465.20 389.59 462.05 389.97 461.50 C 390.35 460.95 390.56 459.02 390.45 457.20 C 390.31 455.10 390.64 454.05 391.36 454.31 C 391.99 454.53 392.37 455.90 392.21 457.35 C 391.93 459.96 393.30 460.95 394.50 459.00 C 394.84 458.45 398.24 458.00 402.06 458.00 C 405.88 458.00 409.00 457.59 409.00 457.09 C 409.00 456.60 409.97 456.44 411.16 456.75 C 412.44 457.09 413.07 456.92 412.71 456.33 C 412.36 455.77 413.47 455.34 415.30 455.31 C 417.06 455.29 423.90 454.49 430.50 453.53 C 448.55 450.91 473.53 450.42 484.43 452.46 C 501.98 455.75 527.64 465.92 528.71 470.01 C 529.00 471.11 529.63 472.00 530.12 472.00 C 530.60 472.00 531.00 481.90 531.00 494.00 C 531.00 506.10 530.66 516.00 530.25 515.99 C 529.84 515.99 524.72 513.60 518.88 510.67 Z M 402.81 456.32 C 403.53 456.03 404.40 456.06 404.73 456.40 C 405.06 456.73 404.47 456.96 403.42 456.92 C 402.25 456.87 402.01 456.64 402.81 456.32 Z M 530.08 410.42 C 530.13 409.25 530.36 409.01 530.68 409.81 C 530.97 410.53 530.94 411.40 530.60 411.73 C 530.27 412.06 530.04 411.47 530.08 410.42 Z M 445.40 345.03 C 445.35 342.30 444.80 339.47 444.19 338.73 C 443.58 338.00 443.34 336.41 443.66 335.20 C 444.12 333.44 444.96 333.00 447.91 333.00 C 455.62 333.00 470.08 338.17 471.31 341.36 C 472.54 344.57 469.47 346.25 458.91 348.10 C 444.61 350.61 445.52 350.82 445.40 345.03 Z M 809.55 312.75 C 809.92 311.51 810.62 310.07 811.11 309.55 C 811.60 309.03 812.00 307.79 812.00 306.80 C 812.00 303.82 813.70 304.77 814.38 308.12 C 815.26 312.56 815.26 312.56 812.45 313.84 C 808.99 315.42 808.76 315.34 809.55 312.75 Z" stroke-linecap="round"/>
</g>
</g>
</g>

  </svg>